<?xml version="1.0" encoding="UTF-8"?><svg id="Layer_1" xmlns="http://www.w3.org/2000/svg" viewBox="0 0 1000.1 1000"><defs><style>.cls-1{fill:#fff;}.cls-2{fill:#58bc6b;}.cls-3{fill:none;}</style></defs><rect class="cls-2" x="0" y="-.04" width="1000.08" height="1000.08"/><g><path class="cls-1" d="M314.9,389c-4.47-3.89-18.93-11.19-29-14.65-14.51-4.98-27.47-7.29-46.34-8.28-40.01-2.11-76.97,9.72-106.26,33.99-5.52,4.57-15.11,14.38-19.73,20.16-17.14,21.45-27.28,46.34-30.24,74.21-.46,4.38-.63,11.5-.52,18.51h23.83c-.39-16.4,2.3-32.73,8.13-47.53,9.23-23.43,24.99-42.89,45.91-56.67,20.33-13.4,44.21-20.33,70.09-20.35,30.53-.02,58.31,7.12,80.22,20.6l4.78,2.94,.13-10.98,.12-10.98-1.12-.97Z"/><path class="cls-1" d="M732.44,352.04h.01v47.81c0,38.18,.12,47.73,.57,47.37,10.16-7.86,15.81-11.71,19.79-13.5l1.92-.86v-80.82h-22.29Z"/><path class="cls-1" d="M698.8,352.05v65.13c0,35.67,.17,64.69,.38,64.69,.21-.23,1.69-2.07,3.28-4.07,5.16-6.48,11.58-14.01,15.15-17.8l3.48-3.7v-104.25h-22.29Z"/><path class="cls-1" d="M312.01,422.41v.04c-16.74-10.69-37.63-17.92-61.04-21.13-7.27-.99-25.68-1.38-32.54-.69-10.57,1.07-21.69,3.72-30.7,7.31-35.44,14.12-60.74,44.55-67.52,81.22-1.45,7.83-2.04,15.82-1.82,23.78h24.88c-.18-5.32,0-10.52,.57-14.98,5.09-39.96,33.72-68.86,73.92-74.65,6.25-.9,24.36-.76,32.74,.23,22,2.63,40.67,9.13,58.21,20.24,4.45,2.82,5.86,3.51,6.48,3.17,.73-.38,.8-1.38,.8-11.21v-10.79l-3.98-2.54Z"/><path class="cls-1" d="M850.8,479.36h-.01c-25.47-17.06-60.58-16.61-87.27,1.09-12.93,8.59-23.12,18.97-38.9,39.64-3.43,4.5-10.28,13.4-15.22,19.78-4.93,6.38-12.51,16.41-16.83,22.29l-7.87,10.69v36.7l5.52-7.89c15.46-22.09,46.21-61.16,64.71-82.24,18.94-21.56,33.29-29.57,53.02-29.57,15.38,0,28.27,5.29,38.1,15.64,6.88,7.24,11.63,16.59,14.06,27.67,1.19,5.44,1.18,21.66-.02,27.19-4.97,22.87-17.99,37.67-37.58,42.72-5.42,1.4-15.12,1.76-20.77,.76-21.27-3.71-38.33-20.69-44.4-44.17-1.36-5.28-1.97-9.46-2.39-16.26-.16-2.68-.43-4.86-.59-4.86-.17,.02-4.17,5.37-8.91,11.9-9.72,13.39-9.18,12.03-7.47,19,2.94,12.03,9.68,23.96,19.21,33.96,13.29,13.95,28.86,21.75,46.54,23.32,5.86,.52,6.65,.52,12.65,0,6.5-.57,12.62-1.83,17.94-3.7,24.6-8.65,42.38-30.07,48-57.83,6.97-34.42-5.52-68.44-31.52-85.83Z"/><path class="cls-1" d="M640.01,595.02c-.15-54.18-.23-59.89-.96-64.24-3.04-18.14-9.38-30.93-21.19-42.78-12.79-12.81-27.35-19.32-46.75-20.88-35.78-2.88-67.13,17.64-78.32,51.25-8.47,25.43-4.91,55.58,9.01,76.37,13.07,19.51,32.72,30.6,57.14,32.23,12.76,.85,30.79-2.98,42.3-9l4.55-2.37,.12-11.73,.12-11.73-2.62,1.78c-14.18,9.62-37.13,13.21-53.78,8.41-18.92-5.44-32.39-20.76-36.89-41.98-1.36-6.45-1.47-18.58-.22-25.01,4.39-22.55,18.93-39.02,39.15-44.35,6.06-1.6,15.69-2.02,22.13-.96,9,1.49,16.58,4.63,23.32,9.7,10.42,7.81,17.34,20.3,19.57,35.3,.61,4.09,.7,12.65,.7,62.11v57.36h22.78s-.16-59.48-.16-59.48Z"/><path class="cls-1" d="M457.64,474.9h0c-11.2-6.41-26.99-8.72-42.16-6.17-5.04,.85-13.65,3.6-17.8,5.68-17.51,8.8-29.49,24.87-33.6,45.06-1.61,7.87-1.8,15.95-1.8,76.24v58.78h22.7l.13-63.56,.13-63.55,1.24-4.55c1.49-5.45,4.88-12.59,7.81-16.46,5.25-6.94,13.35-12.19,22.24-14.43,9.5-2.38,18.8-1.8,28.96,1.83,2.38,.84,4.36,1.54,4.41,1.54s1.49-2.91,3.22-6.48c1.72-3.56,3.98-7.85,5.02-9.53l1.87-3.04-2.36-1.36Z"/><path class="cls-1" d="M316.02,635.91l-.12-10.98-.13-10.98-4.78,2.94c-21.91,13.48-49.69,20.62-80.22,20.6-25.88-.02-49.76-6.95-70.09-20.35-20.92-13.78-36.68-33.24-45.91-56.67-5.83-14.8-8.52-31.13-8.13-47.53h-23.83c-.11,7.01,.06,14.13,.52,18.51,2.96,27.87,13.1,52.76,30.24,74.21,4.62,5.78,14.21,15.59,19.73,20.16,29.29,24.27,66.25,36.1,106.26,33.99,18.87-.99,31.83-3.3,46.34-8.28,10.07-3.46,24.53-10.76,29-14.65l1.12-.97Z"/><path class="cls-1" d="M315.99,600.93v-10.79c0-9.83-.07-10.83-.8-11.21-.62-.34-2.03,.35-6.48,3.17-17.54,11.11-36.21,17.61-58.21,20.24-8.38,.99-26.49,1.13-32.74,.23-40.2-5.79-68.83-34.69-73.92-74.65-.57-4.46-.75-9.66-.57-14.98h-24.88c-.22,7.96,.37,15.95,1.82,23.78,6.78,36.67,32.08,67.1,67.52,81.22,9.01,3.59,20.13,6.24,30.7,7.31,6.86,.69,25.27,.3,32.54-.69,23.41-3.21,44.3-10.44,61.05-21.13v.04s3.97-2.54,3.97-2.54Z"/><path class="cls-3" d="M315.09,525.27v9.27c0,5.33-.16,9.85-.52,13.92h-84.98v-23.2h85.5Z"/><path class="cls-1" d="M329.06,591.84c0-62.61,.1-67.67,1.63-76.97,4.71-28.68,19.73-52.09,42.13-65.69,21.29-12.93,49.55-17.36,76.75-12.02,9.68,1.9,21.73,6.59,29.15,11.34l3,1.92-5.32,5.28c-2.93,2.9-6.24,6.37-7.37,7.7l-2.05,2.42-2.68-1.35c-8.94-4.51-24.06-7.82-35.69-7.82-36.58,0-65.12,21.24-74.06,55.13-3.07,11.64-2.93,8.03-3.09,78.69l-.16,64.01h-22.25v-62.65h0Zm471.17,68.75c-34.14-3.11-62.42-19.5-79.8-46.24-2.74-4.22-7.51-13.81-8.45-17l-.56-1.89,7.91-10.75,7.91-10.75,.4,1.5c5.12,19.23,16.34,35.58,32.15,46.86,4.92,3.51,13.85,8.26,19.77,10.51,14.86,5.64,31.33,7.01,47.37,3.91,10.44-2.02,22.82-7.32,31.51-13.48,5.34-3.79,15.23-13.61,18.83-18.69,8.8-12.41,14.6-27.17,16.93-43.12,1.07-7.31,1.08-22.06,.02-29.29-3.7-25.25-15.19-45.57-33.73-59.63-15.6-11.84-37.59-17.97-58.56-16.36-31.75,2.45-53.64,16.89-85.11,56.18-3.22,4.03-11.7,15.11-18.83,24.61s-13.03,17.37-13.12,17.47c-.09,.1-.17-7.27-.17-16.38v-16.58l7.62-10.67c16.17-22.63,23.16-31.28,34.2-42.29,11.5-11.46,20.7-18.24,32.99-24.34,10.33-5.12,20.25-8.2,32.52-10.08,7.36-1.13,25.39-1.13,32.74,0,25.07,3.86,45.02,14.02,61.85,31.51,16.49,17.13,26.35,38.37,30.08,64.76,.82,5.8,.83,26.93,0,32.74-2.65,18.87-8.77,35.81-18,49.8-17.12,25.97-42.06,42.02-72.81,46.85-4.4,.69-21.3,1.25-25.69,.85h.03Zm-246.95-.25c-49.28-4.51-87.33-39.16-96.83-88.17-1.8-9.28-2.09-12.77-2.09-25.01,0-15,1.01-22.75,4.57-35.03,9.32-32.14,33-58.79,63.19-71.1,14.42-5.88,26.94-8.25,43.43-8.21,15.99,.03,27.78,2.11,41.16,7.24,14.28,5.48,25.81,13.08,36.64,24.16,15.76,16.12,25.14,35.53,29.2,60.39,.95,5.82,.97,7.19,1.12,67.91l.15,61.96h-22.77v-56.97c0-35.37-.19-59.03-.48-62.42-1.94-22.49-11.1-42.31-26.14-56.54-16.87-15.97-41.58-24.38-65.82-22.43-41.65,3.36-72.6,31.92-79.93,73.74-2.04,11.67-1.69,27.24,.92,40.15,1.88,9.31,6.64,21.56,11.33,29.2,9.81,15.94,24.27,27.59,42.01,33.84,15.19,5.35,32.59,6.71,47.41,3.69,8.47-1.73,18.54-5.6,23.59-9.07l2.08-1.43v22.59l-2.62,1.72c-7.44,4.91-18.39,8.5-29.9,9.82-4.75,.55-14.05,.52-20.23-.04h0v.02h.01Z"/></g></svg>